# Blender v2.81 (sub 16) OBJ File: 'store models 3.blend'
# www.blender.org
mtllib shelves.mtl
o Cube.001_Cube.012
v 23.147736 0.610673 4.262584
v 23.147736 3.238532 4.262584
v 23.147736 0.610673 1.634725
v 23.147736 2.207105 1.634725
v 36.787151 0.610673 4.262584
v 36.787151 3.238532 4.262584
v 36.787151 0.610673 1.634725
v 36.787151 2.207105 1.634725
v 3.662025 -0.097907 34.083431
v 3.662025 10.825541 34.083431
v 3.662025 -0.097907 8.786966
v 3.662025 10.825541 8.786966
v 5.533890 -0.097907 34.083431
v 5.533890 10.825541 34.083431
v 5.533890 -0.097907 8.786966
v 5.533890 10.825541 8.786966
v 14.741320 -0.097907 34.922157
v 14.741320 10.825541 34.922157
v 14.741320 -0.097907 7.999522
v 14.741320 10.825541 7.999522
v 16.613184 -0.097907 34.922157
v 16.613184 10.825541 34.922157
v 16.613184 -0.097907 7.999522
v 16.613184 10.825541 7.999522
v 32.037704 0.610673 -13.201994
v 32.037704 2.207105 -13.201994
v 32.037704 0.610673 -15.829853
v 32.037704 3.238532 -15.829853
v 40.009064 0.610673 -13.201994
v 40.009064 2.207105 -13.201994
v 40.009064 0.610673 -15.829853
v 40.009064 3.238532 -15.829853
v -9.749878 -0.097907 36.318359
v -9.749878 10.825541 36.318359
v -9.749878 -0.097907 9.395725
v -9.749878 10.825541 9.395725
v -7.878014 -0.097907 36.318359
v -7.878014 10.825541 36.318359
v -7.878014 -0.097907 9.395725
v -7.878014 10.825541 9.395725
vt 0.207031 0.835938
vt 0.285156 0.914062
vt 0.207031 0.914062
vt 0.710938 0.597656
vt 0.804688 0.027344
vt 0.804688 0.597656
vt 0.113281 0.468750
vt 0.242188 0.257812
vt 0.242188 0.468750
vt 0.300781 0.839844
vt 0.222656 0.917969
vt 0.222656 0.839844
vt 0.289062 0.835938
vt 0.210938 0.914062
vt 0.210938 0.835938
vt 0.867188 0.050781
vt 0.964844 0.414062
vt 0.867188 0.414062
vt 0.292969 0.843750
vt 0.214844 0.921875
vt 0.214844 0.843750
vt 0.285156 0.839844
vt 0.210938 0.914062
vt 0.210938 0.839844
vt 0.671875 0.867188
vt 0.945312 0.984375
vt 0.671875 0.984375
vt 0.296875 0.847656
vt 0.222656 0.925781
vt 0.222656 0.847656
vt 0.289062 0.835938
vt 0.210938 0.914062
vt 0.210938 0.835938
vt 0.292969 0.843750
vt 0.218750 0.921875
vt 0.218750 0.843750
vt 0.292969 0.843750
vt 0.214844 0.921875
vt 0.214844 0.843750
vt 0.289062 0.832031
vt 0.210938 0.906250
vt 0.210938 0.832031
vt 0.671875 0.871094
vt 0.953125 0.988281
vt 0.671875 0.988281
vt 0.289062 0.855469
vt 0.210938 0.929688
vt 0.210938 0.855469
vt 0.289062 0.835938
vt 0.210938 0.914062
vt 0.210938 0.835938
vt 0.296875 0.839844
vt 0.222656 0.917969
vt 0.222656 0.839844
vt 0.292969 0.843750
vt 0.214844 0.921875
vt 0.214844 0.843750
vt 0.292969 0.839844
vt 0.214844 0.917969
vt 0.214844 0.839844
vt 0.203125 0.699219
vt 0.089844 0.511719
vt 0.203125 0.511719
vt 0.707031 0.593750
vt 0.816406 0.023438
vt 0.816406 0.593750
vt 0.289062 0.835938
vt 0.210938 0.914062
vt 0.210938 0.835938
vt 0.972656 0.410156
vt 0.863281 0.046875
vt 0.972656 0.046875
vt 0.292969 0.843750
vt 0.214844 0.921875
vt 0.214844 0.843750
vt 0.281250 0.839844
vt 0.203125 0.917969
vt 0.203125 0.839844
vt 0.667969 0.871094
vt 0.957031 0.988281
vt 0.667969 0.988281
vt 0.296875 0.839844
vt 0.218750 0.917969
vt 0.218750 0.839844
vt 0.289062 0.835938
vt 0.210938 0.914062
vt 0.210938 0.835938
vt 0.296875 0.843750
vt 0.218750 0.921875
vt 0.218750 0.843750
vt 0.285156 0.835938
vt 0.710938 0.027344
vt 0.031250 0.257812
vt 0.300781 0.917969
vt 0.289062 0.914062
vt 0.964844 0.050781
vt 0.292969 0.921875
vt 0.285156 0.914062
vt 0.945312 0.867188
vt 0.296875 0.925781
vt 0.289062 0.914062
vt 0.292969 0.921875
vt 0.292969 0.921875
vt 0.289062 0.906250
vt 0.953125 0.871094
vt 0.289062 0.929688
vt 0.289062 0.914062
vt 0.296875 0.917969
vt 0.292969 0.921875
vt 0.292969 0.917969
vt 0.015625 0.699219
vt 0.707031 0.023438
vt 0.289062 0.914062
vt 0.863281 0.410156
vt 0.292969 0.921875
vt 0.281250 0.917969
vt 0.957031 0.871094
vt 0.296875 0.917969
vt 0.289062 0.914062
vt 0.296875 0.921875
vn -1.0000 0.0000 0.0000
vn 0.0000 0.0000 -1.0000
vn 1.0000 0.0000 0.0000
vn 0.0000 0.0000 1.0000
vn 0.0000 -1.0000 0.0000
vn 0.0000 0.9309 -0.3654
vn 0.0000 1.0000 0.0000
vn 0.0000 0.9309 0.3654
usemtl Material.012
s off
f 1/1/1 4/2/1 3/3/1
f 4/4/2 7/5/2 3/6/2
f 8/7/3 5/8/3 7/9/3
f 6/10/4 1/11/4 5/12/4
f 7/13/5 1/14/5 3/15/5
f 4/16/6 6/17/6 8/18/6
f 10/19/1 11/20/1 9/21/1
f 12/22/2 15/23/2 11/24/2
f 16/25/3 13/26/3 15/27/3
f 14/28/4 9/29/4 13/30/4
f 15/31/5 9/32/5 11/33/5
f 12/34/7 14/35/7 16/36/7
f 18/37/1 19/38/1 17/39/1
f 20/40/2 23/41/2 19/42/2
f 24/43/3 21/44/3 23/45/3
f 22/46/4 17/47/4 21/48/4
f 23/49/5 17/50/5 19/51/5
f 20/52/7 22/53/7 24/54/7
f 26/55/1 27/56/1 25/57/1
f 28/58/2 31/59/2 27/60/2
f 31/61/3 30/62/3 29/63/3
f 30/64/4 25/65/4 29/66/4
f 31/67/5 25/68/5 27/69/5
f 28/70/8 30/71/8 32/72/8
f 34/73/1 35/74/1 33/75/1
f 36/76/2 39/77/2 35/78/2
f 40/79/3 37/80/3 39/81/3
f 38/82/4 33/83/4 37/84/4
f 39/85/5 33/86/5 35/87/5
f 36/88/7 38/89/7 40/90/7
f 1/1/1 2/91/1 4/2/1
f 4/4/2 8/92/2 7/5/2
f 8/7/3 6/93/3 5/8/3
f 6/10/4 2/94/4 1/11/4
f 7/13/5 5/95/5 1/14/5
f 4/16/6 2/96/6 6/17/6
f 10/19/1 12/97/1 11/20/1
f 12/22/2 16/98/2 15/23/2
f 16/25/3 14/99/3 13/26/3
f 14/28/4 10/100/4 9/29/4
f 15/31/5 13/101/5 9/32/5
f 12/34/7 10/102/7 14/35/7
f 18/37/1 20/103/1 19/38/1
f 20/40/2 24/104/2 23/41/2
f 24/43/3 22/105/3 21/44/3
f 22/46/4 18/106/4 17/47/4
f 23/49/5 21/107/5 17/50/5
f 20/52/7 18/108/7 22/53/7
f 26/55/1 28/109/1 27/56/1
f 28/58/2 32/110/2 31/59/2
f 31/61/3 32/111/3 30/62/3
f 30/64/4 26/112/4 25/65/4
f 31/67/5 29/113/5 25/68/5
f 28/70/8 26/114/8 30/71/8
f 34/73/1 36/115/1 35/74/1
f 36/76/2 40/116/2 39/77/2
f 40/79/3 38/117/3 37/80/3
f 38/82/4 34/118/4 33/83/4
f 39/85/5 37/119/5 33/86/5
f 36/88/7 34/120/7 38/89/7
